{
  "raw_data": {
    "kelly_training_image": {
      "streams": [
        {
          "index": 0,
          "codec_name": "png",
          "codec_long_name": "PNG (Portable Network Graphics) image",
          "codec_type": "video",
          "codec_tag_string": "[0][0][0][0]",
          "codec_tag": "0x0000",
          "width": 6000,
          "height": 3375,
          "coded_width": 6000,
          "coded_height": 3375,
          "closed_captions": 0,
          "film_grain": 0,
          "has_b_frames": 0,
          "sample_aspect_ratio": "1:1",
          "display_aspect_ratio": "16:9",
          "pix_fmt": "rgba",
          "level": -99,
          "color_range": "pc",
          "color_space": "gbr",
          "refs": 1,
          "r_frame_rate": "25/1",
          "avg_frame_rate": "25/1",
          "time_base": "1/25",
          "disposition": {
            "default": 0,
            "dub": 0,
            "original": 0,
            "comment": 0,
            "lyrics": 0,
            "karaoke": 0,
            "forced": 0,
            "hearing_impaired": 0,
            "visual_impaired": 0,
            "clean_effects": 0,
            "attached_pic": 0,
            "timed_thumbnails": 0,
            "non_diegetic": 0,
            "captions": 0,
            "descriptions": 0,
            "metadata": 0,
            "dependent": 0,
            "still_image": 0,
            "multilayer": 0
          }
        }
      ]
    },
    "kyle_training_image": {
      "streams": [
        {
          "index": 0,
          "codec_name": "png",
          "codec_long_name": "PNG (Portable Network Graphics) image",
          "codec_type": "video",
          "codec_tag_string": "[0][0][0][0]",
          "codec_tag": "0x0000",
          "width": 6000,
          "height": 3375,
          "coded_width": 6000,
          "coded_height": 3375,
          "closed_captions": 0,
          "film_grain": 0,
          "has_b_frames": 0,
          "sample_aspect_ratio": "1:1",
          "display_aspect_ratio": "16:9",
          "pix_fmt": "rgba",
          "level": -99,
          "color_range": "pc",
          "color_space": "gbr",
          "refs": 1,
          "r_frame_rate": "25/1",
          "avg_frame_rate": "25/1",
          "time_base": "1/25",
          "disposition": {
            "default": 0,
            "dub": 0,
            "original": 0,
            "comment": 0,
            "lyrics": 0,
            "karaoke": 0,
            "forced": 0,
            "hearing_impaired": 0,
            "visual_impaired": 0,
            "clean_effects": 0,
            "attached_pic": 0,
            "timed_thumbnails": 0,
            "non_diegetic": 0,
            "captions": 0,
            "descriptions": 0,
            "metadata": 0,
            "dependent": 0,
            "still_image": 0,
            "multilayer": 0
          }
        }
      ]
    },
    "avatar_kelly_talking_avatar": {
      "streams": [
        {
          "index": 0,
          "codec_name": "h264",
          "codec_long_name": "H.264 / AVC / MPEG-4 AVC / MPEG-4 part 10",
          "profile": "High",
          "codec_type": "video",
          "codec_tag_string": "avc1",
          "codec_tag": "0x31637661",
          "width": 512,
          "height": 512,
          "coded_width": 512,
          "coded_height": 512,
          "closed_captions": 0,
          "film_grain": 0,
          "has_b_frames": 2,
          "pix_fmt": "yuv420p",
          "level": 30,
          "chroma_location": "left",
          "field_order": "progressive",
          "refs": 1,
          "is_avc": "true",
          "nal_length_size": "4",
          "id": "0x1",
          "r_frame_rate": "25/1",
          "avg_frame_rate": "25/1",
          "time_base": "1/12800",
          "start_pts": 0,
          "start_time": "0.000000",
          "duration_ts": 646656,
          "duration": "50.520000",
          "bit_rate": "248413",
          "bits_per_raw_sample": "8",
          "nb_frames": "1263",
          "extradata_size": 41,
          "disposition": {
            "default": 1,
            "dub": 0,
            "original": 0,
            "comment": 0,
            "lyrics": 0,
            "karaoke": 0,
            "forced": 0,
            "hearing_impaired": 0,
            "visual_impaired": 0,
            "clean_effects": 0,
            "attached_pic": 0,
            "timed_thumbnails": 0,
            "non_diegetic": 0,
            "captions": 0,
            "descriptions": 0,
            "metadata": 0,
            "dependent": 0,
            "still_image": 0,
            "multilayer": 0
          },
          "tags": {
            "language": "und",
            "handler_name": "VideoHandler",
            "vendor_id": "[0][0][0][0]"
          }
        },
        {
          "index": 1,
          "codec_name": "aac",
          "codec_long_name": "AAC (Advanced Audio Coding)",
          "profile": "LC",
          "codec_type": "audio",
          "codec_tag_string": "mp4a",
          "codec_tag": "0x6134706d",
          "sample_fmt": "fltp",
          "sample_rate": "16000",
          "channels": 2,
          "channel_layout": "stereo",
          "bits_per_sample": 0,
          "initial_padding": 0,
          "id": "0x2",
          "r_frame_rate": "0/0",
          "avg_frame_rate": "0/0",
          "time_base": "1/16000",
          "start_pts": 0,
          "start_time": "0.000000",
          "duration_ts": 808320,
          "duration": "50.520000",
          "bit_rate": "92942",
          "nb_frames": "791",
          "extradata_size": 5,
          "disposition": {
            "default": 1,
            "dub": 0,
            "original": 0,
            "comment": 0,
            "lyrics": 0,
            "karaoke": 0,
            "forced": 0,
            "hearing_impaired": 0,
            "visual_impaired": 0,
            "clean_effects": 0,
            "attached_pic": 0,
            "timed_thumbnails": 0,
            "non_diegetic": 0,
            "captions": 0,
            "descriptions": 0,
            "metadata": 0,
            "dependent": 0,
            "still_image": 0,
            "multilayer": 0
          },
          "tags": {
            "language": "und",
            "handler_name": "SoundHandler",
            "vendor_id": "[0][0][0][0]"
          }
        }
      ],
      "format": {
        "filename": "output/videos/kelly_talking_avatar.mp4",
        "nb_streams": 2,
        "nb_programs": 0,
        "nb_stream_groups": 0,
        "format_name": "mov,mp4,m4a,3gp,3g2,mj2",
        "format_long_name": "QuickTime / MOV",
        "start_time": "0.000000",
        "duration": "50.520000",
        "size": "2189996",
        "bit_rate": "346792",
        "probe_score": 100,
        "tags": {
          "major_brand": "isom",
          "minor_version": "512",
          "compatible_brands": "isomiso2avc1mp41",
          "encoder": "Lavf58.29.100"
        }
      }
    },
    "avatar_kyle_512px_avatar": {
      "streams": [
        {
          "index": 0,
          "codec_name": "h264",
          "codec_long_name": "H.264 / AVC / MPEG-4 AVC / MPEG-4 part 10",
          "profile": "High",
          "codec_type": "video",
          "codec_tag_string": "avc1",
          "codec_tag": "0x31637661",
          "width": 512,
          "height": 512,
          "coded_width": 512,
          "coded_height": 512,
          "closed_captions": 0,
          "film_grain": 0,
          "has_b_frames": 2,
          "pix_fmt": "yuv420p",
          "level": 30,
          "chroma_location": "left",
          "field_order": "progressive",
          "refs": 1,
          "is_avc": "true",
          "nal_length_size": "4",
          "id": "0x1",
          "r_frame_rate": "25/1",
          "avg_frame_rate": "25/1",
          "time_base": "1/12800",
          "start_pts": 0,
          "start_time": "0.000000",
          "duration_ts": 644608,
          "duration": "50.360000",
          "bit_rate": "555759",
          "bits_per_raw_sample": "8",
          "nb_frames": "1259",
          "extradata_size": 41,
          "disposition": {
            "default": 1,
            "dub": 0,
            "original": 0,
            "comment": 0,
            "lyrics": 0,
            "karaoke": 0,
            "forced": 0,
            "hearing_impaired": 0,
            "visual_impaired": 0,
            "clean_effects": 0,
            "attached_pic": 0,
            "timed_thumbnails": 0,
            "non_diegetic": 0,
            "captions": 0,
            "descriptions": 0,
            "metadata": 0,
            "dependent": 0,
            "still_image": 0,
            "multilayer": 0
          },
          "tags": {
            "language": "und",
            "handler_name": "VideoHandler",
            "vendor_id": "[0][0][0][0]"
          }
        },
        {
          "index": 1,
          "codec_name": "aac",
          "codec_long_name": "AAC (Advanced Audio Coding)",
          "profile": "LC",
          "codec_type": "audio",
          "codec_tag_string": "mp4a",
          "codec_tag": "0x6134706d",
          "sample_fmt": "fltp",
          "sample_rate": "16000",
          "channels": 2,
          "channel_layout": "stereo",
          "bits_per_sample": 0,
          "initial_padding": 0,
          "id": "0x2",
          "r_frame_rate": "0/0",
          "avg_frame_rate": "0/0",
          "time_base": "1/16000",
          "start_pts": 0,
          "start_time": "0.000000",
          "duration_ts": 805760,
          "duration": "50.360000",
          "bit_rate": "97249",
          "nb_frames": "788",
          "extradata_size": 5,
          "disposition": {
            "default": 1,
            "dub": 0,
            "original": 0,
            "comment": 0,
            "lyrics": 0,
            "karaoke": 0,
            "forced": 0,
            "hearing_impaired": 0,
            "visual_impaired": 0,
            "clean_effects": 0,
            "attached_pic": 0,
            "timed_thumbnails": 0,
            "non_diegetic": 0,
            "captions": 0,
            "descriptions": 0,
            "metadata": 0,
            "dependent": 0,
            "still_image": 0,
            "multilayer": 0
          },
          "tags": {
            "language": "und",
            "handler_name": "SoundHandler",
            "vendor_id": "[0][0][0][0]"
          }
        }
      ],
      "format": {
        "filename": "output/videos/kyle_512px_avatar.mp4",
        "nb_streams": 2,
        "nb_programs": 0,
        "nb_stream_groups": 0,
        "format_name": "mov,mp4,m4a,3gp,3g2,mj2",
        "format_long_name": "QuickTime / MOV",
        "start_time": "0.000000",
        "duration": "50.360000",
        "size": "4144912",
        "bit_rate": "658445",
        "probe_score": 100,
        "tags": {
          "major_brand": "isom",
          "minor_version": "512",
          "compatible_brands": "isomiso2avc1mp41",
          "encoder": "Lavf58.29.100"
        }
      }
    },
    "avatar_kelly_talking_avatar_16x9": {
      "streams": [
        {
          "index": 0,
          "codec_name": "h264",
          "codec_long_name": "H.264 / AVC / MPEG-4 AVC / MPEG-4 part 10",
          "profile": "High",
          "codec_type": "video",
          "codec_tag_string": "avc1",
          "codec_tag": "0x31637661",
          "width": 1280,
          "height": 720,
          "coded_width": 1280,
          "coded_height": 720,
          "closed_captions": 0,
          "film_grain": 0,
          "has_b_frames": 2,
          "pix_fmt": "yuv420p",
          "level": 31,
          "chroma_location": "left",
          "field_order": "progressive",
          "refs": 1,
          "is_avc": "true",
          "nal_length_size": "4",
          "id": "0x1",
          "r_frame_rate": "25/1",
          "avg_frame_rate": "25/1",
          "time_base": "1/12800",
          "start_pts": 0,
          "start_time": "0.000000",
          "duration_ts": 646656,
          "duration": "50.520000",
          "bit_rate": "774571",
          "bits_per_raw_sample": "8",
          "nb_frames": "1263",
          "extradata_size": 46,
          "disposition": {
            "default": 1,
            "dub": 0,
            "original": 0,
            "comment": 0,
            "lyrics": 0,
            "karaoke": 0,
            "forced": 0,
            "hearing_impaired": 0,
            "visual_impaired": 0,
            "clean_effects": 0,
            "attached_pic": 0,
            "timed_thumbnails": 0,
            "non_diegetic": 0,
            "captions": 0,
            "descriptions": 0,
            "metadata": 0,
            "dependent": 0,
            "still_image": 0,
            "multilayer": 0
          },
          "tags": {
            "language": "und",
            "handler_name": "VideoHandler",
            "vendor_id": "[0][0][0][0]",
            "encoder": "Lavc61.19.101 libx264"
          }
        },
        {
          "index": 1,
          "codec_name": "aac",
          "codec_long_name": "AAC (Advanced Audio Coding)",
          "profile": "LC",
          "codec_type": "audio",
          "codec_tag_string": "mp4a",
          "codec_tag": "0x6134706d",
          "sample_fmt": "fltp",
          "sample_rate": "16000",
          "channels": 2,
          "channel_layout": "stereo",
          "bits_per_sample": 0,
          "initial_padding": 0,
          "id": "0x2",
          "r_frame_rate": "0/0",
          "avg_frame_rate": "0/0",
          "time_base": "1/16000",
          "start_pts": 0,
          "start_time": "0.000000",
          "duration_ts": 808320,
          "duration": "50.520000",
          "bit_rate": "92942",
          "nb_frames": "791",
          "extradata_size": 5,
          "disposition": {
            "default": 1,
            "dub": 0,
            "original": 0,
            "comment": 0,
            "lyrics": 0,
            "karaoke": 0,
            "forced": 0,
            "hearing_impaired": 0,
            "visual_impaired": 0,
            "clean_effects": 0,
            "attached_pic": 0,
            "timed_thumbnails": 0,
            "non_diegetic": 0,
            "captions": 0,
            "descriptions": 0,
            "metadata": 0,
            "dependent": 0,
            "still_image": 0,
            "multilayer": 0
          },
          "tags": {
            "language": "und",
            "handler_name": "SoundHandler",
            "vendor_id": "[0][0][0][0]"
          }
        }
      ],
      "format": {
        "filename": "output/videos/16x9/kelly_talking_avatar_16x9.mp4",
        "nb_streams": 2,
        "nb_programs": 0,
        "nb_stream_groups": 0,
        "format_name": "mov,mp4,m4a,3gp,3g2,mj2",
        "format_long_name": "QuickTime / MOV",
        "start_time": "0.000000",
        "duration": "50.520000",
        "size": "5512727",
        "bit_rate": "872957",
        "probe_score": 100,
        "tags": {
          "major_brand": "isom",
          "minor_version": "512",
          "compatible_brands": "isomiso2avc1mp41",
          "encoder": "Lavf61.7.100"
        }
      }
    },
    "avatar_kyle_512px_avatar_16x9": {
      "streams": [
        {
          "index": 0,
          "codec_name": "h264",
          "codec_long_name": "H.264 / AVC / MPEG-4 AVC / MPEG-4 part 10",
          "profile": "High",
          "codec_type": "video",
          "codec_tag_string": "avc1",
          "codec_tag": "0x31637661",
          "width": 1280,
          "height": 720,
          "coded_width": 1280,
          "coded_height": 720,
          "closed_captions": 0,
          "film_grain": 0,
          "has_b_frames": 2,
          "pix_fmt": "yuv420p",
          "level": 31,
          "chroma_location": "left",
          "field_order": "progressive",
          "refs": 1,
          "is_avc": "true",
          "nal_length_size": "4",
          "id": "0x1",
          "r_frame_rate": "25/1",
          "avg_frame_rate": "25/1",
          "time_base": "1/12800",
          "start_pts": 0,
          "start_time": "0.000000",
          "duration_ts": 644608,
          "duration": "50.360000",
          "bit_rate": "1604712",
          "bits_per_raw_sample": "8",
          "nb_frames": "1259",
          "extradata_size": 46,
          "disposition": {
            "default": 1,
            "dub": 0,
            "original": 0,
            "comment": 0,
            "lyrics": 0,
            "karaoke": 0,
            "forced": 0,
            "hearing_impaired": 0,
            "visual_impaired": 0,
            "clean_effects": 0,
            "attached_pic": 0,
            "timed_thumbnails": 0,
            "non_diegetic": 0,
            "captions": 0,
            "descriptions": 0,
            "metadata": 0,
            "dependent": 0,
            "still_image": 0,
            "multilayer": 0
          },
          "tags": {
            "language": "und",
            "handler_name": "VideoHandler",
            "vendor_id": "[0][0][0][0]",
            "encoder": "Lavc61.19.101 libx264"
          }
        },
        {
          "index": 1,
          "codec_name": "aac",
          "codec_long_name": "AAC (Advanced Audio Coding)",
          "profile": "LC",
          "codec_type": "audio",
          "codec_tag_string": "mp4a",
          "codec_tag": "0x6134706d",
          "sample_fmt": "fltp",
          "sample_rate": "16000",
          "channels": 2,
          "channel_layout": "stereo",
          "bits_per_sample": 0,
          "initial_padding": 0,
          "id": "0x2",
          "r_frame_rate": "0/0",
          "avg_frame_rate": "0/0",
          "time_base": "1/16000",
          "start_pts": 0,
          "start_time": "0.000000",
          "duration_ts": 805760,
          "duration": "50.360000",
          "bit_rate": "97249",
          "nb_frames": "788",
          "extradata_size": 5,
          "disposition": {
            "default": 1,
            "dub": 0,
            "original": 0,
            "comment": 0,
            "lyrics": 0,
            "karaoke": 0,
            "forced": 0,
            "hearing_impaired": 0,
            "visual_impaired": 0,
            "clean_effects": 0,
            "attached_pic": 0,
            "timed_thumbnails": 0,
            "non_diegetic": 0,
            "captions": 0,
            "descriptions": 0,
            "metadata": 0,
            "dependent": 0,
            "still_image": 0,
            "multilayer": 0
          },
          "tags": {
            "language": "und",
            "handler_name": "SoundHandler",
            "vendor_id": "[0][0][0][0]"
          }
        }
      ],
      "format": {
        "filename": "output/videos/16x9/kyle_512px_avatar_16x9.mp4",
        "nb_streams": 2,
        "nb_programs": 0,
        "nb_stream_groups": 0,
        "format_name": "mov,mp4,m4a,3gp,3g2,mj2",
        "format_long_name": "QuickTime / MOV",
        "start_time": "0.000000",
        "duration": "50.360000",
        "size": "10748145",
        "bit_rate": "1707409",
        "probe_score": 100,
        "tags": {
          "major_brand": "isom",
          "minor_version": "512",
          "compatible_brands": "isomiso2avc1mp41",
          "encoder": "Lavf61.7.100"
        }
      }
    }
  },
  "overlay_analysis": {
    "kelly": {
      "training_image": {
        "width": 6000,
        "height": 3375,
        "aspect_ratio": 1.7777777777777777
      },
      "avatar_video": {
        "width": 512,
        "height": 512,
        "aspect_ratio": 1.0
      },
      "scaling": {
        "scale_x": 11.71875,
        "scale_y": 6.591796875,
        "uniform_scale": 6.591796875
      },
      "16x9_positioning": {
        "target_width": 1920,
        "target_height": 1080,
        "avatar_width": 512,
        "avatar_height": 512,
        "x_offset": 704,
        "y_offset": 284
      }
    },
    "kyle": {
      "training_image": {
        "width": 6000,
        "height": 3375,
        "aspect_ratio": 1.7777777777777777
      },
      "avatar_video": {
        "width": 512,
        "height": 512,
        "aspect_ratio": 1.0
      },
      "scaling": {
        "scale_x": 11.71875,
        "scale_y": 6.591796875,
        "uniform_scale": 6.591796875
      },
      "16x9_positioning": {
        "target_width": 1920,
        "target_height": 1080,
        "avatar_width": 512,
        "avatar_height": 512,
        "x_offset": 704,
        "y_offset": 284
      }
    }
  },
  "timestamp": "/Users/nicolette/dailylesson-foundry"
}